<svg width="34" height="34" viewBox="0 0 34 34" fill="none" xmlns="http://www.w3.org/2000/svg">
<path d="M16.93 33.8601C26.2802 33.8601 33.8601 26.2802 33.8601 16.93C33.8601 7.57984 26.2802 0 16.93 0C7.57984 0 0 7.57984 0 16.93C0 26.2802 7.57984 33.8601 16.93 33.8601Z" fill="#14AD84"/>
<path d="M16.93 18.3292C20.0982 18.3292 22.6666 15.7608 22.6666 12.5926C22.6666 9.42433 20.0982 6.85596 16.93 6.85596C13.7617 6.85596 11.1934 9.42433 11.1934 12.5926C11.1934 15.7608 13.7617 18.3292 16.93 18.3292Z" fill="#1D1D1B"/>
<path d="M29.5227 28.5432C26.4445 31.9012 21.9671 34 17.07 34C12.1729 34 7.6955 31.9012 4.61731 28.5432C6.29632 23.3662 11.1934 19.5885 16.9301 19.5885C22.8066 19.5885 27.7037 23.3662 29.5227 28.5432Z" fill="#1D1D1B"/>
</svg>
