<svg width="26" height="17" viewBox="0 0 26 17" fill="none" xmlns="http://www.w3.org/2000/svg">
<path fill-rule="evenodd" clip-rule="evenodd" d="M24.997 8.77296C25.1217 8.54364 21.377 1.08087 13.0451 1.00063C7.88404 0.951 3.39514 3.84662 1.09425 8.03775C0.968582 8.26708 0.968582 8.54364 1.09425 8.77216C3.39474 12.9635 7.88404 15.8089 13.0453 15.8089C18.2062 15.8097 22.6949 12.9651 24.997 8.77296Z" stroke="#2877E0" stroke-width="1.2"/>
<path d="M13.0067 12.5064C15.2171 12.5064 17.009 10.7146 17.009 8.50419C17.009 6.29381 15.2171 4.50195 13.0067 4.50195C10.7964 4.50195 9.00452 6.29381 9.00452 8.50419C9.00452 10.7146 10.7964 12.5064 13.0067 12.5064Z" stroke="#2877E0" stroke-width="1.2"/>
</svg>
