<svg width="120" height="44" viewBox="0 0 120 44" fill="none" xmlns="http://www.w3.org/2000/svg">
<g clip-path="url(#clip0_182_524)">
<path d="M54.8434 43.829H54.5119V41.7349C54.5119 41.4042 54.4014 41.1103 54.2173 40.9266C53.9963 40.743 53.7384 40.6327 53.407 40.6327C53.0755 40.6327 52.7808 40.743 52.5598 40.9634C52.3388 41.1838 52.2283 41.441 52.2283 41.8084V43.8657H51.8968V41.294C51.8968 41.0001 51.86 40.8164 51.8232 40.743C51.7863 40.6695 51.639 40.6327 51.4548 40.6695V40.3756C51.7495 40.3388 51.9337 40.3388 52.0442 40.4123C52.1547 40.4858 52.2283 40.6695 52.2283 40.9266C52.523 40.4858 52.965 40.3021 53.5174 40.3021C53.9594 40.3021 54.2909 40.449 54.5488 40.7062C54.8066 40.9634 54.9171 41.3308 54.9171 41.7349V43.829H54.8434Z" fill="#14AD84"/>
<path d="M58.7109 40.3021C59.2634 40.3021 59.7054 40.4858 59.9632 40.7797C60.221 41.1103 60.3315 41.5512 60.221 42.1023H57.2744C57.2744 42.5799 57.4217 42.9473 57.6796 43.2044C57.9374 43.4616 58.3425 43.5718 58.8214 43.5718C59.2265 43.5718 59.6317 43.4616 60.0368 43.3146L60.1105 43.6086C59.7053 43.7922 59.2634 43.9025 58.8582 43.9025C58.2689 43.9025 57.7901 43.7188 57.4586 43.3881C57.1271 43.0575 56.9429 42.5799 56.9797 41.9921C57.0166 41.4777 57.2007 41.0736 57.4954 40.7797C57.7901 40.449 58.1952 40.3021 58.7109 40.3021ZM57.3112 41.8084H59.9632C60 41.4042 59.8895 41.1103 59.6685 40.8899C59.4475 40.6695 59.116 40.5593 58.7109 40.5593C58.3057 40.5593 58.0111 40.6695 57.7532 40.8899C57.4954 41.1103 57.3481 41.4042 57.3112 41.8084Z" fill="#14AD84"/>
<path d="M63.4991 43.829H63.3149L62.0258 40.4123V40.3755H62.3941L62.9834 41.9186L63.4254 43.2044L64.383 40.4858H64.5304L65.488 43.2044L65.93 41.9186L66.5193 40.3755H66.8877V40.4123L65.5985 43.829H65.4144L64.4935 41.1838L63.4991 43.829Z" fill="#14AD84"/>
<path d="M71.8231 43.5718V38.5754H72.1546V40.7062C72.4493 40.4858 72.7808 40.3388 73.1491 40.3021C73.4806 40.2653 73.8121 40.3021 74.0699 40.4123C74.3277 40.5225 74.5856 40.7429 74.7697 41.0369C74.9539 41.3308 75.0275 41.6614 75.0275 42.0655C75.0275 42.4329 74.9539 42.7268 74.8434 42.984C74.6961 43.2412 74.5487 43.4249 74.3277 43.5718C74.1067 43.7188 73.8489 43.7922 73.5911 43.829C73.2964 43.8657 73.0018 43.8657 72.7439 43.829C72.3756 43.7922 72.0809 43.7188 71.8231 43.5718ZM72.1546 41.0736V43.3514C72.4493 43.4616 72.7439 43.5351 73.0386 43.5351C73.3333 43.5351 73.5911 43.5351 73.8489 43.4249C74.1067 43.3514 74.2909 43.2044 74.4382 42.9473C74.5856 42.7268 74.6592 42.4329 74.6592 42.0655C74.6592 41.5879 74.5119 41.2205 74.2541 40.9634C73.9962 40.7062 73.6647 40.596 73.2596 40.596C72.8913 40.6327 72.5229 40.7797 72.1546 41.0736Z" fill="#14AD84"/>
<path d="M78.7107 40.3021C79.2632 40.3021 79.7052 40.4858 79.9631 40.7797C80.2209 41.1103 80.3314 41.5512 80.2209 42.1023H77.2743C77.2743 42.5799 77.4216 42.9473 77.6794 43.2044C77.9373 43.4616 78.3424 43.5718 78.8212 43.5718C79.2264 43.5718 79.6316 43.4616 80.0367 43.3146L80.1104 43.6086C79.7052 43.7922 79.2632 43.9025 78.8581 43.9025C78.2688 43.9025 77.7899 43.7188 77.4584 43.3881C77.127 43.0575 76.9428 42.5799 76.9796 41.9921C77.0165 41.4777 77.2006 41.0736 77.4953 40.7797C77.7899 40.449 78.1951 40.3021 78.7107 40.3021ZM77.3111 41.8084H79.9631C79.9999 41.4042 79.8894 41.1103 79.6684 40.8899C79.4474 40.6695 79.1159 40.5593 78.7107 40.5593C78.3056 40.5593 78.0109 40.6695 77.7531 40.8899C77.4953 41.1103 77.3479 41.4042 77.3111 41.8084Z" fill="#14AD84"/>
<path d="M82.1731 42.8738H82.5046C82.5414 43.0942 82.6519 43.2779 82.8729 43.4248C83.0939 43.5351 83.3517 43.6085 83.6832 43.6085C83.9779 43.6085 84.2725 43.5351 84.4935 43.4248C84.7145 43.3146 84.825 43.1309 84.825 42.8738C84.825 42.7268 84.7882 42.6166 84.7145 42.5431C84.6409 42.4697 84.5672 42.3962 84.4567 42.3594C84.3462 42.3227 84.2357 42.286 84.1252 42.2492C84.0147 42.2125 83.9042 42.2125 83.7569 42.1757C83.7201 42.1757 83.7201 42.1757 83.7201 42.1757H83.6832C83.4991 42.139 83.3886 42.139 83.2781 42.1023C83.1676 42.0655 83.0571 42.0655 82.9097 41.9921C82.7624 41.9553 82.6519 41.8818 82.5782 41.8451C82.5046 41.7716 82.4309 41.6981 82.3573 41.5879C82.2836 41.4777 82.2836 41.3675 82.2836 41.2205C82.2836 40.8899 82.4309 40.6327 82.6887 40.4858C82.9466 40.3388 83.2781 40.2286 83.6832 40.2286C84.0884 40.2286 84.4199 40.3021 84.6777 40.449C84.9355 40.596 85.0829 40.8164 85.0829 41.1103H84.7514C84.7514 40.9266 84.6409 40.7429 84.4199 40.6327C84.1989 40.5225 83.9411 40.4858 83.6464 40.4858C83.3517 40.4858 83.0939 40.5593 82.8729 40.6695C82.6519 40.7797 82.5414 40.9634 82.5782 41.1838C82.5782 41.294 82.6151 41.3675 82.6519 41.441C82.7256 41.5145 82.7624 41.5879 82.8361 41.6247C82.9097 41.6614 83.0202 41.6981 83.1307 41.7349C83.2781 41.7716 83.3517 41.7716 83.4254 41.7716C83.4991 41.7716 83.5727 41.7716 83.7201 41.8084C83.9042 41.8451 84.0516 41.8451 84.162 41.8818C84.2725 41.9186 84.383 41.9186 84.5304 41.9921C84.6777 42.0288 84.7882 42.1023 84.8619 42.1757C84.9355 42.2492 85.0092 42.3227 85.0829 42.4329C85.1565 42.5431 85.1565 42.6901 85.1565 42.837C85.1565 43.1677 85.0092 43.4248 84.7145 43.5718C84.4199 43.7555 84.0884 43.829 83.6464 43.829C83.2412 43.829 82.9097 43.7555 82.6151 43.5718C82.3573 43.4616 82.2099 43.2044 82.1731 42.8738Z" fill="#14AD84"/>
<path d="M87.9926 39.3102V40.3756H89.3186V40.6695H87.9926V42.5431C87.9926 43.0575 88.1031 43.3881 88.361 43.5351C88.6188 43.682 88.9871 43.6453 89.4659 43.4616L89.5028 43.7555C88.2505 44.1596 87.6243 43.7922 87.6243 42.5431V40.6695L86.8508 40.6327V40.3756H87.6243L87.6611 39.3102H87.9926Z" fill="#14AD84"/>
<path d="M95.0644 39.3102V40.3756H96.3904V40.6695H95.0644V42.5431C95.0644 43.0575 95.1749 43.3881 95.4327 43.5351C95.6906 43.682 96.0589 43.6453 96.5377 43.4616L96.5745 43.7555C95.3222 44.1596 94.6961 43.7922 94.6961 42.5431V40.6695L93.9226 40.6327V40.3756H94.6961L94.7329 39.3102H95.0644Z" fill="#14AD84"/>
<path d="M99.9999 40.3021C100.552 40.3021 100.994 40.4858 101.252 40.7797C101.51 41.1103 101.621 41.5512 101.51 42.1023H98.5635C98.5635 42.5799 98.7108 42.9473 98.9686 43.2044C99.2265 43.4616 99.6316 43.5718 100.11 43.5718C100.516 43.5718 100.921 43.4616 101.326 43.3146L101.4 43.6086C100.994 43.7922 100.552 43.9025 100.147 43.9025C99.5579 43.9025 99.0791 43.7188 98.7476 43.3881C98.4161 43.0575 98.232 42.5799 98.2688 41.9921C98.3056 41.4777 98.4898 41.0736 98.7845 40.7797C99.0791 40.4858 99.4843 40.3021 99.9999 40.3021ZM98.6003 41.8084H101.252C101.289 41.4042 101.179 41.1103 100.958 40.8899C100.737 40.6695 100.405 40.5593 99.9999 40.5593C99.5948 40.5593 99.3001 40.6695 99.0423 40.8899C98.7845 41.1103 98.6371 41.4042 98.6003 41.8084Z" fill="#14AD84"/>
<path d="M106.851 41.3307H106.519C106.409 41.1103 106.261 40.9266 106.04 40.8164C105.819 40.7062 105.598 40.6327 105.341 40.6327C104.935 40.6327 104.567 40.7429 104.273 41.0368C103.978 41.294 103.831 41.6614 103.831 42.139C103.831 42.5798 103.978 42.9472 104.273 43.2411C104.567 43.4983 104.899 43.6453 105.304 43.6453C105.598 43.6453 105.819 43.5718 106.077 43.4248C106.298 43.2779 106.482 43.0942 106.593 42.8003H106.924C106.814 43.1677 106.593 43.4248 106.298 43.6453C106.004 43.829 105.672 43.9392 105.304 43.9392C104.825 43.9392 104.383 43.7922 104.052 43.4616C103.683 43.1309 103.499 42.6901 103.499 42.139C103.499 41.5879 103.683 41.147 104.052 40.8164C104.42 40.4858 104.862 40.3388 105.341 40.3388C105.672 40.3388 106.004 40.449 106.298 40.6327C106.556 40.7429 106.74 41.0001 106.851 41.3307Z" fill="#14AD84"/>
<path d="M112.007 43.829H111.639V41.7716C111.639 41.4042 111.528 41.1103 111.344 40.8899C111.16 40.6695 110.865 40.596 110.497 40.596C110.129 40.596 109.834 40.7062 109.613 40.9266C109.392 41.1471 109.282 41.441 109.282 41.8084V43.829H108.95V38.5754H109.282V40.9266C109.503 40.4858 109.945 40.2653 110.571 40.2653C110.939 40.2653 111.271 40.4123 111.565 40.6695C111.823 40.9266 111.97 41.294 111.97 41.7716V43.829H112.007Z" fill="#14AD84"/>
<path d="M6.74033 18.4427V11.6461C6.74033 11.2052 7.10866 10.8746 7.51381 10.8746H13.1492V7.01703H7.51381C4.93554 7.01703 2.8361 9.11112 2.8361 11.6828V18.7366C2.8361 19.5816 2.13628 20.2796 1.28913 20.2796H0V20.6837V22.888H1.28913C2.13628 22.888 2.8361 23.5861 2.8361 24.431V31.4848C2.8361 34.0565 4.93554 36.1506 7.51381 36.1506H13.1492V32.2563H7.51381C7.07182 32.2563 6.74033 31.889 6.74033 31.4848V24.6882C6.74033 23.4391 6.15101 22.3002 5.26704 21.5654C6.15101 20.8307 6.74033 19.7285 6.74033 18.4427Z" fill="#14AD84"/>
<path d="M38.4162 18.4427V11.6461C38.4162 11.2052 38.0478 10.8746 37.6427 10.8746H32.0073V7.01703H37.6427C40.221 7.01703 42.3204 9.11112 42.3204 11.6828V18.7366C42.3204 19.5816 43.0202 20.2796 43.8674 20.2796H45.1565V20.6837V22.888H43.8674C43.0202 22.888 42.3204 23.5861 42.3204 24.431V31.4848C42.3204 34.0565 40.221 36.1506 37.6427 36.1506H32.0073V32.2563H37.6427C38.0847 32.2563 38.4162 31.889 38.4162 31.4848V24.6882C38.4162 23.4391 39.0055 22.3002 39.8895 21.5654C39.0055 20.8307 38.4162 19.7285 38.4162 18.4427Z" fill="#14AD84"/>
<path d="M22.2468 13.0421H18.4163C17.7901 13.0421 17.3113 12.5645 17.3113 11.94V10.4337V8.11918C17.3113 7.49463 17.7901 7.01703 18.4163 7.01703H22.2468C22.873 7.01703 23.3518 7.49463 23.3518 8.11918V11.94C23.3518 12.5645 22.873 13.0421 22.2468 13.0421Z" fill="#202A44"/>
<path d="M119.006 12.4176H115.58C115.028 12.4176 114.586 11.9767 114.586 11.4256V10.0663V8.00897C114.586 7.45789 115.028 7.01703 115.58 7.01703H119.006C119.558 7.01703 120 7.45789 120 8.00897V11.4256C120 11.9767 119.558 12.4176 119.006 12.4176Z" fill="#14AD84"/>
<path d="M30.5709 21.9329H25.5617C24.7514 21.9329 24.1252 21.2716 24.1252 20.5001V18.5162V15.5036C24.1252 14.6954 24.7882 14.0708 25.5617 14.0708H30.5709C31.3812 14.0708 32.0074 14.7321 32.0074 15.5036V20.5001C32.0074 21.3083 31.3444 21.9329 30.5709 21.9329Z" fill="#202A44"/>
<path d="M27.7348 4.40861H24.9356C24.4936 4.40861 24.1252 4.04123 24.1252 3.60037V2.49821V0.808246C24.1252 0.367384 24.4936 0 24.9356 0H27.7348C28.1768 0 28.5451 0.367384 28.5451 0.808246V3.60037C28.5451 4.04123 28.1768 4.40861 27.7348 4.40861Z" fill="#202A44"/>
<path d="M15.617 39.1264L16.6851 36.6282H28.5452L29.466 41.2205H32.4862V43.829H12.6704V41.2205H24.7514V39.1264H15.617Z" fill="#14AD84"/>
<path d="M79.8895 7.01705H73.8121H69.9815V28.6927L54.9907 7.01705H51.86V36.1139H55.7274V14.3647L70.7182 36.0772H72.0073H82.5414C84.8987 36.0772 86.8876 35.3057 88.5451 33.7259C90.1657 32.1462 91.0128 30.199 91.0128 27.8845C91.0128 26.3415 90.6077 24.9454 89.8342 23.7698C89.0607 22.5942 87.9926 21.6757 86.6298 21.0144C88.7292 19.5449 89.7974 17.5243 89.7974 14.9526C89.7974 13.3361 89.3922 11.9033 88.5451 10.6542H99.5948V36.0772H103.425V10.6542H112.044V6.98032H79.8895V7.01705ZM73.8489 10.6542H79.9263H82.0994C83.0939 10.7644 83.9779 11.1685 84.7145 11.94C85.5616 12.8217 85.9668 13.8504 85.9668 15.0628C85.9668 16.3119 85.5616 17.3773 84.7145 18.2223C83.8674 19.0673 82.836 19.5081 81.6206 19.5081H73.8489V10.6542ZM87.1823 27.7743C87.1823 29.0969 86.7403 30.2358 85.8563 31.1542C84.9723 32.0727 83.8674 32.5135 82.5782 32.5135H73.8858V23.0718H82.5782C83.8674 23.0718 84.9355 23.5126 85.8563 24.4311C86.7035 25.3495 87.1823 26.4517 87.1823 27.7743Z" fill="#202A44"/>
</g>
<defs>
<clipPath id="clip0_182_524">
<rect width="120" height="43.9024" fill="white"/>
</clipPath>
</defs>
</svg>
