<svg width="22" height="21" viewBox="0 0 22 21" fill="none" xmlns="http://www.w3.org/2000/svg">
<path d="M14.979 13.0321H5.30762L1.5 16.3066V10.7094V2.52305C1.5 1.68537 2.18537 1 3.02305 1H14.9409C15.7786 1 16.4639 1.68537 16.4639 2.52305V11.509C16.502 12.3467 15.8166 13.0321 14.979 13.0321Z" stroke="#6A737D" stroke-width="1.2" stroke-miterlimit="10" stroke-linecap="round" stroke-linejoin="round"/>
<path d="M5.80249 13.0321V15.2024C5.80249 16.0401 6.48786 16.7254 7.32554 16.7254H16.9969L20.8045 20V14.4028V6.21642C20.8045 5.37875 20.1191 4.69337 19.2814 4.69337H16.54" stroke="#6A737D" stroke-width="1.2" stroke-miterlimit="10" stroke-linecap="round" stroke-linejoin="round"/>
<path d="M5.9 8.09257C6.39706 8.09257 6.8 7.68963 6.8 7.19257C6.8 6.69552 6.39706 6.29257 5.9 6.29257C5.40294 6.29257 5 6.69552 5 7.19257C5 7.68963 5.40294 8.09257 5.9 8.09257Z" fill="#6A737D"/>
<path d="M9.25059 8.09257C9.74764 8.09257 10.1506 7.68963 10.1506 7.19257C10.1506 6.69552 9.74764 6.29257 9.25059 6.29257C8.75353 6.29257 8.35059 6.69552 8.35059 7.19257C8.35059 7.68963 8.75353 8.09257 9.25059 8.09257Z" fill="#6A737D"/>
<path d="M12.6395 8.09257C13.1366 8.09257 13.5395 7.68963 13.5395 7.19257C13.5395 6.69552 13.1366 6.29257 12.6395 6.29257C12.1424 6.29257 11.7395 6.69552 11.7395 7.19257C11.7395 7.68963 12.1424 8.09257 12.6395 8.09257Z" fill="#6A737D"/>
</svg>
