<svg width="21" height="20" viewBox="0 0 21 20" fill="none" xmlns="http://www.w3.org/2000/svg">
<path d="M17.646 19H3.0708C1.95575 19 1 18.0442 1 16.9292V6.73451C1 5.61947 1.95575 4.66372 3.0708 4.66372H17.646C18.7611 4.66372 19.7168 5.61947 19.7168 6.73451V17.0088C19.6372 18.1239 18.7611 19 17.646 19Z" stroke="#6A737D" stroke-width="1.2" stroke-miterlimit="10"/>
<path d="M19.6373 13.9823H15.8143C15.1771 13.9823 14.6992 13.5044 14.6992 12.8673V10.8761C14.6992 10.2389 15.1771 9.76106 15.8143 9.76106H19.6373" stroke="#6A737D" stroke-width="1.2" stroke-miterlimit="10"/>
<path d="M4.50439 4.66372L7.92917 1.23894C8.24776 0.920354 8.72563 0.920354 9.04422 1.23894L12.469 4.66372" stroke="#6A737D" stroke-width="1.2" stroke-miterlimit="10"/>
<path d="M10.5576 2.75221L12.0709 1.23894C12.3895 0.920354 12.8674 0.920354 13.1859 1.23894L16.6107 4.66372" stroke="#6A737D" stroke-width="1.2" stroke-miterlimit="10"/>
</svg>
