<svg width="22" height="20" viewBox="0 0 22 20" fill="none" xmlns="http://www.w3.org/2000/svg">
<path d="M19.4545 19.2727H2.54545C1.63636 19.2727 1 18.5454 1 17.7273V6.45454C1 5.54544 1.72727 4.90908 2.54545 4.90908H19.3636C20.2727 4.90908 20.9091 5.63635 20.9091 6.45454V17.7273C21 18.5454 20.2727 19.2727 19.4545 19.2727Z" stroke="#1C444C" stroke-width="1.2" stroke-miterlimit="10"/>
<path d="M5.72726 4.81818V2.72727C5.72726 1.72727 6.54545 1 7.45454 1H14.4545C15.4545 1 16.1818 1.81818 16.1818 2.72727V4.81818" stroke="#1C444C" stroke-width="1.2" stroke-miterlimit="10"/>
<path d="M1 10.7273H9.54546" stroke="#1C444C" stroke-width="1.2" stroke-miterlimit="10"/>
<path d="M11.8182 12.7273H10.0909C9.72729 12.7273 9.45456 12.4545 9.45456 12.0909V9.27272C9.45456 8.90909 9.72729 8.63636 10.0909 8.63636H11.8182C12.1818 8.63636 12.4546 8.90909 12.4546 9.27272V12.0909C12.4546 12.4545 12.1818 12.7273 11.8182 12.7273Z" stroke="#1C444C" stroke-width="1.2" stroke-miterlimit="10"/>
<path d="M12.4546 10.7273H21" stroke="#1C444C" stroke-width="1.2" stroke-miterlimit="10"/>
</svg>
