<svg width="22" height="21" viewBox="0 0 22 21" fill="none" xmlns="http://www.w3.org/2000/svg">
<path d="M4.94494 4.49725V2.18489C4.94494 1.5272 5.47736 1 6.12983 1H19.3098C19.9675 1 20.4947 1.53242 20.4947 2.18489V18.0843C20.4947 19.1387 19.6386 19.9948 18.5842 19.9948H3.22241" stroke="#6A737D" stroke-width="1.2" stroke-miterlimit="10" stroke-linecap="round" stroke-linejoin="round"/>
<path d="M3.22253 20C4.17253 20 4.94505 19.2275 4.94505 18.2775V4.49725H2.68489C2.0272 4.49725 1.5 5.02967 1.5 5.68214V18.2775C1.5 19.2275 2.26731 20 3.22253 20Z" stroke="#6A737D" stroke-width="1.2" stroke-miterlimit="10" stroke-linecap="round" stroke-linejoin="round"/>
<path d="M8.20752 5.56732H17.2377" stroke="#6A737D" stroke-width="1.2" stroke-miterlimit="10" stroke-linecap="round" stroke-linejoin="round"/>
<path d="M8.20752 8.85577H17.2377" stroke="#6A737D" stroke-width="1.2" stroke-miterlimit="10" stroke-linecap="round" stroke-linejoin="round"/>
<path d="M8.20752 12.1442H17.2377" stroke="#6A737D" stroke-width="1.2" stroke-miterlimit="10" stroke-linecap="round" stroke-linejoin="round"/>
<path d="M8.20752 15.4327H17.2377" stroke="#6A737D" stroke-width="1.2" stroke-miterlimit="10" stroke-linecap="round" stroke-linejoin="round"/>
</svg>
