<svg width="14" height="18" viewBox="0 0 14 18" fill="none" xmlns="http://www.w3.org/2000/svg">
<path d="M9.56253 4.16249L6.78753 1.38749L4.01253 4.16249L3.33752 3.4875L6.78753 0L10.2375 3.4875L9.56253 4.16249Z" fill="#14AD84"/>
<path d="M6.26251 0.712498H7.31251V11.5875H6.26251V0.712498Z" fill="#14AD84"/>
<path d="M11.9625 17.85H1.575C0.712505 17.85 0 17.1375 0 16.275V6.9375C0 6.075 0.712505 5.3625 1.575 5.3625H5.2125V6.41249H1.575C1.275 6.41249 1.05001 6.6375 1.05001 6.9375V16.275C1.05001 16.575 1.275 16.8 1.575 16.8H11.9625C12.2625 16.8 12.4875 16.575 12.4875 16.275V6.9375C12.4875 6.6375 12.2625 6.41249 11.9625 6.41249H8.325V5.3625H11.9625C12.825 5.3625 13.5375 6.075 13.5375 6.9375V16.275C13.5375 17.1375 12.825 17.85 11.9625 17.85Z" fill="#14AD84"/>
</svg>
