<svg width="18" height="17" viewBox="0 0 18 17" fill="none" xmlns="http://www.w3.org/2000/svg">
<path fill-rule="evenodd" clip-rule="evenodd" d="M8.87183 3.09091C8.56274 3.99117 7.72961 4.63636 6.75 4.63636C5.50745 4.63636 4.5 3.59839 4.5 2.31818C4.5 1.03797 5.50745 0 6.75 0C7.72961 0 8.56274 0.645197 8.87183 1.54545H17.25C17.6642 1.54545 18 1.89145 18 2.31818C18 2.74492 17.6642 3.09091 17.25 3.09091H8.87183ZM7.5 2.31818C7.5 2.74492 7.16418 3.09091 6.75 3.09091C6.33582 3.09091 6 2.74492 6 2.31818C6 1.89145 6.33582 1.54545 6.75 1.54545C7.16418 1.54545 7.5 1.89145 7.5 2.31818Z" fill="#6A737D"/>
<path d="M0.75 3.09091H3.12817C3.04541 2.84905 3 2.58909 3 2.31818C3 2.04727 3.04541 1.78731 3.12817 1.54545H0.75C0.335815 1.54545 0 1.89145 0 2.31818C0 2.74492 0.335815 3.09091 0.75 3.09091Z" fill="#6A737D"/>
<path fill-rule="evenodd" clip-rule="evenodd" d="M17.25 9.27273H16.3718C16.0627 10.173 15.2296 10.8182 14.25 10.8182C13.0074 10.8182 12 9.78021 12 8.5C12 7.21979 13.0074 6.18182 14.25 6.18182C15.2296 6.18182 16.0627 6.82701 16.3718 7.72727H17.25C17.6642 7.72727 18 8.07326 18 8.5C18 8.92673 17.6642 9.27273 17.25 9.27273ZM15 8.5C15 8.92673 14.6642 9.27273 14.25 9.27273C13.8358 9.27273 13.5 8.92673 13.5 8.5C13.5 8.07326 13.8358 7.72727 14.25 7.72727C14.6642 7.72727 15 8.07326 15 8.5Z" fill="#6A737D"/>
<path d="M10.6282 9.27273H0.75C0.335815 9.27273 0 8.92673 0 8.5C0 8.07326 0.335815 7.72727 0.75 7.72727H10.6282C10.5454 7.96913 10.5 8.22909 10.5 8.5C10.5 8.77091 10.5454 9.03087 10.6282 9.27273Z" fill="#6A737D"/>
<path fill-rule="evenodd" clip-rule="evenodd" d="M17.25 15.4545H8.87183C8.56274 16.3548 7.72961 17 6.75 17C5.50745 17 4.5 15.962 4.5 14.6818C4.5 13.4016 5.50745 12.3636 6.75 12.3636C7.72961 12.3636 8.56274 13.0088 8.87183 13.9091H17.25C17.6642 13.9091 18 14.2551 18 14.6818C18 15.1086 17.6642 15.4545 17.25 15.4545ZM7.5 14.6818C7.5 15.1086 7.16418 15.4545 6.75 15.4545C6.33582 15.4545 6 15.1086 6 14.6818C6 14.2551 6.33582 13.9091 6.75 13.9091C7.16418 13.9091 7.5 14.2551 7.5 14.6818Z" fill="#6A737D"/>
<path d="M3.12817 15.4545H0.75C0.335815 15.4545 0 15.1086 0 14.6818C0 14.2551 0.335815 13.9091 0.75 13.9091H3.12817C3.04541 14.1509 3 14.4109 3 14.6818C3 14.9527 3.04541 15.2127 3.12817 15.4545Z" fill="#6A737D"/>
</svg>
